<svg width="374" height="73" viewBox="0 0 374 73" xmlns="http://www.w3.org/2000/svg" xmlns:xlink="http://www.w3.org/1999/xlink"><title>4</title><desc>Created with Sketch.</desc><defs><path id="path-1" d="M242 0h132v73H242z"/><mask id="mask-2" maskContentUnits="userSpaceOnUse" maskUnits="objectBoundingBox" x="0" y="0" width="132" height="73" fill="#fff"><use xlink:href="#path-1"/></mask></defs><g id="Page-1" stroke="none" stroke-width="1" fill="none" fill-rule="evenodd"><g id="Artboard" transform="translate(-53.000000, -29.000000)"><g id="4" transform="translate(53.000000, 29.000000)"><use id="Rectangle" stroke="#000" mask="url(#mask-2)" stroke-width="2" fill="#fff" xlink:href="#path-1"/><path d="M28.15 22.7V51H26.37V26.88C26.37 26.5333316 26.3899998 26.1666686 26.43 25.78L15.29 45.56C15.1033324 45.9066684 14.8366684 46.08 14.49 46.08H14.17C13.8233316 46.08 13.5566676 45.9066684 13.37 45.56L1.93 25.74C1.9700002 26.140002 1.99 26.5199982 1.99 26.88V51H.19V22.7H1.61C1.7966676 22.7 1.9433328 22.7199998 2.05 22.76 2.1566672 22.8000002 2.2633328 22.9066658 2.37 23.08L13.79 42.76C13.990001 43.1333352 14.1633326 43.5333312 14.31 43.96 14.3900004 43.7466656 14.4766662 43.5366677 14.57 43.33 14.6633338 43.1233323 14.7633328 42.9266676 14.87 42.74L25.97 23.08C26.0766672 22.9066658 26.1866661 22.8000002 26.3 22.76 26.4133339 22.7199998 26.5633324 22.7 26.75 22.7H28.15zM59.77 40.72 54.01 26.42C53.809999 25.953331 53.6166676 25.3933366 53.43 24.74 53.3499996 25.0600016 53.2633338 25.3633319 53.17 25.65 53.0766662 25.9366681 52.9766672 26.1999988 52.87 26.44L47.11 40.72H59.77zM66.03 51H64.45C64.2633324 51 64.1100006 50.9500005 63.99 50.85 63.8699994 50.7499995 63.776667 50.6200008 63.71 50.46L60.39 42.24H46.49L43.17 50.46C43.1166664 50.6066674 43.023334 50.7333328 42.89 50.84 42.756666 50.9466672 42.5966676 51 42.41 51H40.85L52.43 22.7H54.45L66.03 51zM98.53 46.24C98.663334 46.24 98.7766662 46.2866662 98.87 46.38L99.67 47.24C99.0833304 47.8666698 98.4466701 48.4299975 97.76 48.93 97.0733299 49.4300025 96.3200041 49.8566649 95.5 50.21 94.6799959 50.5633351 93.7800049 50.8366657 92.8 51.03 91.8199951 51.2233343 90.7433392 51.32 89.57 51.32 87.6099902 51.32 85.8133415 50.9766701 84.18 50.29 82.5466585 49.6033299 81.1433392 48.6300063 79.97 47.37 78.7966608 46.1099937 77.8866699 44.5866756 77.24 42.8 76.5933301 41.0133244 76.27 39.0266776 76.27 36.84 76.27 34.6933226 76.60333 32.7333422 77.27 30.96 77.93667 29.1866578 78.869994 27.6633397 80.07 26.39 81.270006 25.1166603 82.7099916 24.1300035 84.39 23.43 86.0700084 22.7299965 87.9233232 22.38 89.95 22.38 91.883343 22.38 93.5966592 22.679997 95.09 23.28 96.5833408 23.880003 97.9433272 24.7266612 99.17 25.82L98.55 26.72C98.4433328 26.8800008 98.2766678 26.96 98.05 26.96 97.8899992 26.96 97.6300018 26.8133348 97.27 26.52 96.9099982 26.2266652 96.4100032 25.9033351 95.77 25.55 95.1299968 25.1966649 94.3333381 24.8733348 93.38 24.58 92.4266619 24.2866652 91.28334 24.14 89.95 24.14 88.2433248 24.14 86.6800071 24.4333304 85.26 25.02 83.8399929 25.6066696 82.6200051 26.4466612 81.6 27.54 80.5799949 28.6333388 79.7833362 29.9666588 79.21 31.54 78.6366638 33.1133412 78.35 34.8799902 78.35 36.84 78.35 38.84001 78.6399971 40.6266588 79.22 42.2 79.8000029 43.7733412 80.5966616 45.1033279 81.61 46.19 82.6233384 47.2766721 83.8199931 48.1099971 85.2 48.69 86.5800069 49.2700029 88.069992 49.56 89.67 49.56 90.6833384 49.56 91.5866627 49.493334 92.38 49.36 93.1733373 49.226666 93.90333 49.026668 94.57 48.76 95.23667 48.493332 95.8566638 48.1666686 96.43 47.78 97.0033362 47.3933314 97.5699972 46.9400026 98.13 46.42 98.196667 46.3666664 98.263333 46.3233335 98.33 46.29 98.396667 46.2566665 98.463333 46.24 98.53 46.24zM134.99 22.7V51H132.93V37.44H115.21V51H113.15V22.7H115.21V35.9H132.93V22.7H134.99zM153.41 51H151.35V22.7H153.41V51zM191.61 22.7V51H190.65C190.476666 51 190.333334 50.9700003 190.22 50.91 190.106666 50.8499997 189.996667 50.7466674 189.89 50.6L171.51 26.04C171.55 26.440002 171.57 26.8199982 171.57 27.18V51H169.77V22.7H170.79C170.976668 22.7 171.12 22.7233331 171.22 22.77 171.32 22.8166669 171.429999 22.9199992 171.55 23.08L189.89 47.58C189.85 47.179998 189.83 46.8000018 189.83 46.44V22.7H191.61zM224.97 49.3 224.93 51H207.97V22.7H224.93V24.4H210.03V35.84H222.43V37.5H210.03V49.3H224.97z" id="MACHINE" fill="#000"/><path d="M271.48 49.36C273.960012 49.36 275.83666 48.8233387 277.11 47.75 278.38334 46.6766613 279.02 45.1666764 279.02 43.22 279.02 42.3266622 278.850002 41.5233369 278.51 40.81 278.169998 40.0966631 277.680003 39.4900025 277.04 38.99 276.399997 38.4899975 275.613338 38.106668 274.68 37.84 273.746662 37.573332 272.686673 37.44 271.5 37.44H264.38V49.36H271.48zM264.38 24.32V35.94H270.5C271.806673 35.94 272.923329 35.773335 273.85 35.44 274.776671 35.106665 275.536664 34.6666694 276.13 34.12 276.723336 33.5733306 277.159999 32.9533368 277.44 32.26 277.720001 31.5666632 277.86 30.853337 277.86 30.12 277.86 28.2133238 277.256673 26.7700049 276.05 25.79 274.843327 24.8099951 272.980013 24.32 270.46 24.32H264.38zM270.46 22.7C272.073341 22.7 273.473327 22.8599984 274.66 23.18 275.846673 23.5000016 276.826663 23.9699969 277.6 24.59 278.373337 25.2100031 278.946665 25.9666622 279.32 26.86 279.693335 27.7533378 279.88 28.766661 279.88 29.9 279.88 30.6466704 279.750001 31.3666632 279.49 32.06 279.229999 32.7533368 278.856669 33.3933304 278.37 33.98 277.883331 34.5666696 277.283337 35.0766645 276.57 35.51 275.856663 35.9433355 275.040005 36.2733322 274.12 36.5 276.346678 36.8200016 278.056661 37.5566609 279.25 38.71 280.443339 39.8633391 281.04 41.3799906 281.04 43.26 281.04 44.460006 280.826669 45.5399952 280.4 46.5 279.973331 47.4600048 279.353337 48.27333 278.54 48.94 277.726663 49.60667 276.726673 50.1166649 275.54 50.47 274.353327 50.8233351 273.006674 51 271.5 51H262.32V22.7H270.46zM320.74 36.84C320.74 39.0266776 320.413337 41.0099911 319.76 42.79 319.106663 44.5700089 318.186673 46.0899937 317 47.35 315.813327 48.6100063 314.390008 49.5833299 312.73 50.27 311.069992 50.9566701 309.24001 51.3 307.24 51.3 305.23999 51.3 303.413342 50.9566701 301.76 50.27 300.106658 49.5833299 298.686673 48.6100063 297.5 47.35 296.313327 46.0899937 295.393337 44.5700089 294.74 42.79 294.086663 41.0099911 293.76 39.0266776 293.76 36.84 293.76 34.6666558 294.086663 32.6900089 294.74 30.91 295.393337 29.1299911 296.313327 27.6100063 297.5 26.35 298.686673 25.0899937 300.106658 24.1133368 301.76 23.42 303.413342 22.7266632 305.23999 22.38 307.24 22.38 309.24001 22.38 311.069992 22.7233299 312.73 23.41 314.390008 24.0966701 315.813327 25.073327 317 26.34 318.186673 27.606673 319.106663 29.1299911 319.76 30.91 320.413337 32.6900089 320.74 34.6666558 320.74 36.84zM318.62 36.84C318.62 34.8666568 318.346669 33.0933412 317.8 31.52 317.253331 29.9466588 316.480005 28.6133388 315.48 27.52 314.479995 26.4266612 313.280007 25.5900029 311.88 25.01 310.479993 24.4299971 308.933342 24.14 307.24 24.14 305.559992 24.14 304.020007 24.4299971 302.62 25.01 301.219993 25.5900029 300.016672 26.4266612 299.01 27.52 298.003328 28.6133388 297.223336 29.9466588 296.67 31.52 296.116664 33.0933412 295.84 34.8666568 295.84 36.84 295.84 38.8266766 296.116664 40.6033255 296.67 42.17 297.223336 43.7366745 298.003328 45.0666612 299.01 46.16 300.016672 47.2533388 301.219993 48.0866638 302.62 48.66 304.020007 49.2333362 305.559992 49.52 307.24 49.52 308.933342 49.52 310.479993 49.2333362 311.88 48.66 313.280007 48.0866638 314.479995 47.2533388 315.48 46.16 316.480005 45.0666612 317.253331 43.7366745 317.8 42.17 318.346669 40.6033255 318.62 38.8266766 318.62 36.84zM354.02 51H352C351.813332 51 351.666667 50.9433339 351.56 50.83 351.453333 50.7166661 351.366667 50.6066672 351.3 50.5L342.38 37.44C342.326666 37.640001 342.233334 37.839999 342.1 38.04L333.34 50.5C333.246666 50.6200006 333.150001 50.7333328 333.05 50.84 332.949999 50.9466672 332.820001 51 332.66 51H330.74L340.98 36.48 331.2 22.7H333.22C333.406668 22.7 333.543333 22.7399996 333.63 22.82 333.716667 22.9000004 333.793333 22.9933328 333.86 23.1L342.46 35.48C342.54 35.279999 342.639999 35.080001 342.76 34.88L351.06 23.12C351.126667 22.9999994 351.209999 22.9000004 351.31 22.82 351.410001 22.7399996 351.526666 22.7 351.66 22.7H353.62L343.84 36.36 354.02 51z" id="BOX" fill="#000"/></g></g></g></svg>