<?xml version="1.0" encoding="utf-8"?>
<!-- Generator: Adobe Illustrator 16.0.0, SVG Export Plug-In . SVG Version: 6.00 Build 0)  -->
<!DOCTYPE svg PUBLIC "-//W3C//DTD SVG 1.1//EN" "http://www.w3.org/Graphics/SVG/1.1/DTD/svg11.dtd">
<svg version="1.1" id="图层_1" xmlns="http://www.w3.org/2000/svg" xmlns:xlink="http://www.w3.org/1999/xlink" x="0px" y="0px"
	 width="374px" height="73px" viewBox="0 0 374 73" enable-background="new 0 0 374 73" xml:space="preserve">
<title>4</title>
<desc>Created with Sketch.</desc>
<g id="Page-1">
	<g id="Artboard" transform="translate(-53.000000, -29.000000)">
		<defs>
			<filter id="Adobe_OpacityMaskFilter" filterUnits="userSpaceOnUse" x="271.094" y="-50.62" width="224.781" height="28.94">
				<feColorMatrix  type="matrix" values="1 0 0 0 0  0 1 0 0 0  0 0 1 0 0  0 0 0 1 0"/>
			</filter>
		</defs>
		<mask maskUnits="userSpaceOnUse" x="271.094" y="-50.62" width="224.781" height="28.94" id="mask-2">
			<g filter="url(#Adobe_OpacityMaskFilter)">
				<path id="path-1" fill="#FFFFFF" d="M512.904-73h132V0h-132V-73z"/>
			</g>
		</mask>
		<g id="_x34_" transform="translate(53.000000, 29.000000)" mask="url(#mask-2)">
			<path id="MACHINE" d="M246.055-79.3V-51h-1.78v-24.12c0-0.347,0.021-0.713,0.06-1.1l-11.14,19.781
				c-0.187,0.346-0.453,0.52-0.8,0.52h-0.32c-0.347,0-0.613-0.174-0.8-0.52l-11.44-19.82c0.041,0.4,0.061,0.78,0.061,1.14V-51
				h-1.801v-28.3h1.42c0.188,0,0.334,0.02,0.44,0.06c0.106,0.04,0.214,0.147,0.32,0.32l11.42,19.68c0.2,0.373,0.373,0.773,0.521,1.2
				c0.08-0.214,0.166-0.423,0.26-0.63c0.093-0.207,0.193-0.403,0.3-0.59l11.101-19.66c0.105-0.173,0.216-0.28,0.329-0.32
				c0.113-0.04,0.264-0.06,0.45-0.06H246.055z M277.674-61.279l-5.76-14.301c-0.199-0.467-0.393-1.026-0.58-1.68
				c-0.08,0.32-0.166,0.623-0.26,0.91s-0.193,0.55-0.3,0.79l-5.761,14.281H277.674z M283.934-51h-1.579
				c-0.187,0-0.341-0.05-0.46-0.15c-0.12-0.1-0.213-0.229-0.28-0.39l-3.319-8.22h-13.9l-3.32,8.22
				c-0.053,0.146-0.146,0.273-0.279,0.38c-0.134,0.107-0.294,0.16-0.48,0.16h-1.561l11.58-28.3h2.021L283.934-51z M316.434-55.76
				c0.135,0,0.248,0.047,0.341,0.14l0.8,0.86c-0.586,0.627-1.223,1.189-1.91,1.689c-0.687,0.5-1.439,0.927-2.26,1.28
				s-1.721,0.627-2.7,0.819c-0.979,0.193-2.057,0.291-3.229,0.291c-1.961,0-3.757-0.344-5.391-1.03
				c-1.633-0.687-3.036-1.66-4.209-2.92c-1.174-1.261-2.084-2.783-2.73-4.57c-0.646-1.786-0.971-3.772-0.971-5.96
				c0-2.146,0.334-4.106,1-5.88c0.667-1.773,1.601-3.297,2.801-4.57c1.199-1.273,2.64-2.26,4.32-2.96c1.68-0.7,3.533-1.05,5.56-1.05
				c1.933,0,3.646,0.3,5.14,0.9c1.494,0.6,2.854,1.447,4.08,2.54l-0.62,0.9c-0.106,0.16-0.272,0.24-0.5,0.24
				c-0.159,0-0.42-0.146-0.78-0.44c-0.359-0.293-0.859-0.617-1.5-0.97c-0.64-0.353-1.436-0.676-2.39-0.97
				c-0.953-0.293-2.097-0.44-3.43-0.44c-1.707,0-3.271,0.293-4.69,0.88c-1.42,0.586-2.64,1.427-3.66,2.52
				c-1.02,1.093-1.816,2.427-2.39,4s-0.86,3.34-0.86,5.3c0,2,0.291,3.787,0.871,5.36c0.579,1.573,1.376,2.903,2.389,3.989
				c1.014,1.088,2.211,1.92,3.591,2.5s2.87,0.871,4.47,0.871c1.014,0,1.916-0.067,2.71-0.201c0.794-0.133,1.523-0.332,2.19-0.6
				c0.666-0.267,1.286-0.594,1.859-0.98c0.574-0.386,1.141-0.84,1.7-1.359c0.067-0.053,0.134-0.097,0.2-0.13
				S316.367-55.76,316.434-55.76z M352.895-79.3V-51h-2.061v-13.561h-17.72V-51h-2.06v-28.3h2.06v13.2h17.72v-13.2H352.895z
				 M371.314-51h-2.061v-28.3h2.061V-51z M409.514-79.3V-51h-0.959c-0.174,0-0.316-0.029-0.43-0.09
				c-0.114-0.061-0.225-0.164-0.33-0.311l-18.381-24.56c0.04,0.4,0.061,0.78,0.061,1.14V-51h-1.801v-28.3h1.021
				c0.187,0,0.33,0.023,0.431,0.07c0.1,0.047,0.209,0.15,0.329,0.31l18.341,24.5c-0.041-0.4-0.061-0.78-0.061-1.141V-79.3H409.514z
				 M442.875-52.7l-0.041,1.7h-16.959v-28.3h16.959v1.7h-14.9v11.44h12.4v1.66h-12.4v11.8H442.875z"/>
		</g>
	</g>
</g>
<rect x="302.84" y="1" fill="#FFFFFF" stroke="#000000" stroke-width="2" width="70.16" height="71"/>
<g>
	<path d="M342.342,50.816h-2.523l-3.523-9.255h-14.171c-0.509,1.455-1.062,2.993-1.657,4.614s-1.165,3.168-1.709,4.641h-2.234
		c0.946-2.488,1.88-4.925,2.8-7.31c0.921-2.383,1.836-4.754,2.748-7.111c0.911-2.357,1.827-4.729,2.747-7.112s1.854-4.812,2.8-7.283
		h2.972L342.342,50.816z M335.69,39.905l-6.679-16.012l-6.336,16.012H335.69z"/>
	<path d="M354.835,50.816h-2.104v-28.79h2.104V50.816z"/>
</g>
<g>
	<path d="M139.265,51.33c-1.945,0-3.646-0.205-5.101-0.617c-1.455-0.412-2.678-1-3.668-1.762c-0.991-0.763-1.749-1.684-2.274-2.762
		c-0.526-1.078-0.833-2.291-0.921-3.641h2.077c0.211,1.297,0.605,2.375,1.184,3.234c0.578,0.858,1.292,1.542,2.143,2.051
		c0.851,0.508,1.818,0.867,2.906,1.078c1.086,0.21,2.243,0.314,3.471,0.314c1.279,0,2.432-0.135,3.457-0.407
		c1.025-0.271,1.902-0.666,2.63-1.183c0.727-0.518,1.283-1.14,1.67-1.867c0.385-0.728,0.578-1.547,0.578-2.459
		c0-0.963-0.167-1.774-0.5-2.432c-0.333-0.658-0.894-1.231-1.683-1.723c-0.789-0.49-1.827-0.929-3.116-1.314
		c-1.288-0.385-2.888-0.779-4.798-1.183c-1.578-0.351-2.932-0.753-4.063-1.209s-2.064-0.986-2.801-1.591
		c-0.736-0.605-1.279-1.297-1.63-2.077s-0.526-1.687-0.526-2.722c0-1.122,0.237-2.147,0.71-3.076
		c0.474-0.929,1.145-1.727,2.012-2.393c0.868-0.666,1.91-1.183,3.129-1.551s2.563-0.552,4.036-0.552s2.822,0.171,4.05,0.513
		c1.227,0.342,2.301,0.837,3.221,1.486s1.665,1.438,2.235,2.366c0.569,0.93,0.933,1.981,1.091,3.155h-2.024
		c-0.193-0.771-0.509-1.49-0.947-2.156c-0.438-0.666-1.003-1.24-1.695-1.723c-0.693-0.481-1.517-0.858-2.472-1.13
		c-0.956-0.271-2.047-0.408-3.273-0.408c-2.577,0-4.527,0.474-5.851,1.42c-1.324,0.947-1.985,2.244-1.985,3.892
		c0,0.754,0.122,1.411,0.368,1.972c0.245,0.561,0.661,1.065,1.249,1.512c0.587,0.447,1.362,0.841,2.327,1.183
		c0.964,0.342,2.164,0.662,3.602,0.96c0.842,0.175,1.71,0.359,2.604,0.552c0.895,0.193,1.766,0.42,2.616,0.684
		c0.851,0.263,1.661,0.587,2.433,0.973c0.771,0.386,1.441,0.859,2.011,1.42c0.57,0.562,1.026,1.231,1.368,2.012
		s0.513,1.705,0.513,2.774c0,1.227-0.259,2.353-0.776,3.379c-0.517,1.025-1.235,1.91-2.156,2.654
		c-0.92,0.746-2.016,1.324-3.286,1.736C142.135,51.125,140.755,51.33,139.265,51.33z"/>
	<path d="M181.943,50.805h-2.13v-14.33h-17.749v14.33h-2.104V22.013h2.104v12.358h17.749V22.013h2.13V50.805z"/>
	<path d="M218.233,50.805h-2.523l-3.523-9.256h-14.173c-0.509,1.455-1.061,2.994-1.656,4.615c-0.597,1.621-1.166,3.168-1.709,4.641
		h-2.235c0.946-2.488,1.88-4.926,2.8-7.31c0.921-2.384,1.837-4.755,2.748-7.113c0.911-2.357,1.827-4.728,2.748-7.112
		c0.92-2.384,1.854-4.812,2.8-7.284h2.972L218.233,50.805z M211.581,39.893l-6.679-16.013l-6.337,16.013H211.581z"/>
	<path d="M251.815,50.805h-2.313l-2.866-7.651c-0.28-0.736-0.592-1.429-0.934-2.077s-0.74-1.214-1.196-1.696
		c-0.456-0.481-0.978-0.863-1.564-1.144s-1.275-0.421-2.063-0.421h-10.071v12.989h-2.104V22.013h12.963
		c1.21,0,2.38,0.11,3.511,0.329c1.131,0.22,2.139,0.609,3.023,1.17s1.591,1.337,2.117,2.327c0.525,0.991,0.788,2.257,0.788,3.8
		c0,0.964-0.118,1.863-0.354,2.695c-0.236,0.833-0.596,1.578-1.078,2.235c-0.482,0.657-1.096,1.218-1.841,1.683
		c-0.745,0.465-1.617,0.802-2.616,1.013c0.543,0.42,0.99,0.824,1.341,1.209c0.351,0.386,0.653,0.798,0.907,1.236
		c0.254,0.438,0.482,0.92,0.684,1.445c0.202,0.526,0.435,1.131,0.697,1.814L251.815,50.805z M230.807,35.712h9.992
		c1.42,0,2.638-0.105,3.654-0.315s1.854-0.556,2.512-1.039c0.657-0.482,1.144-1.108,1.459-1.88s0.474-1.718,0.474-2.84
		c0-1.981-0.627-3.396-1.88-4.247c-1.254-0.85-3.125-1.275-5.614-1.275h-10.597V35.712z"/>
	<path d="M283.057,50.805h-20.799V22.013h20.089v2.104h-17.985v10.649h16.854v2.104h-16.854v11.832h18.695V50.805z"/>
</g>
</svg>
