<?xml version="1.0" encoding="utf-8"?>
<!-- Generator: Adobe Illustrator 16.0.0, SVG Export Plug-In . SVG Version: 6.00 Build 0)  -->
<!DOCTYPE svg PUBLIC "-//W3C//DTD SVG 1.1//EN" "http://www.w3.org/Graphics/SVG/1.1/DTD/svg11.dtd">
<svg version="1.1" id="图层_1" xmlns="http://www.w3.org/2000/svg" xmlns:xlink="http://www.w3.org/1999/xlink" x="0px" y="0px"
	 width="374px" height="73px" viewBox="0 0 374 73" enable-background="new 0 0 374 73" xml:space="preserve">
<title>4</title>
<desc>Created with Sketch.</desc>
<g id="Page-1">
	<g id="Artboard" transform="translate(-53.000000, -29.000000)">
		<defs>
			<filter id="Adobe_OpacityMaskFilter" filterUnits="userSpaceOnUse" x="271.096" y="-50.621" width="224.779" height="28.94">
				<feColorMatrix  type="matrix" values="1 0 0 0 0  0 1 0 0 0  0 0 1 0 0  0 0 0 1 0"/>
			</filter>
		</defs>
		<mask maskUnits="userSpaceOnUse" x="271.096" y="-50.621" width="224.779" height="28.94" id="mask-2">
			<g filter="url(#Adobe_OpacityMaskFilter)">
				<path id="path-1" fill="#FFFFFF" d="M512.904-73h132V0h-132V-73z"/>
			</g>
		</mask>
		<g id="_x34_" transform="translate(53.000000, 29.000000)" mask="url(#mask-2)">
			<path id="MACHINE" d="M246.055-79.3V-51h-1.779v-24.12c0-0.347,0.021-0.713,0.06-1.1l-11.14,19.781
				c-0.188,0.346-0.453,0.52-0.801,0.52h-0.319c-0.347,0-0.613-0.174-0.8-0.52l-11.44-19.82c0.041,0.4,0.062,0.78,0.062,1.14V-51
				h-1.801v-28.3h1.42c0.188,0,0.334,0.02,0.439,0.06s0.214,0.147,0.32,0.32l11.42,19.68c0.199,0.373,0.373,0.773,0.521,1.2
				c0.08-0.214,0.166-0.423,0.261-0.63c0.092-0.207,0.192-0.403,0.299-0.59l11.102-19.66c0.105-0.173,0.216-0.28,0.329-0.32
				c0.112-0.04,0.265-0.06,0.45-0.06H246.055z M277.674-61.279l-5.76-14.301c-0.199-0.467-0.393-1.026-0.58-1.68
				c-0.08,0.32-0.166,0.623-0.26,0.91s-0.193,0.55-0.301,0.79l-5.76,14.281H277.674z M283.934-51h-1.578
				c-0.188,0-0.342-0.05-0.461-0.15s-0.213-0.229-0.279-0.39l-3.319-8.22h-13.899l-3.32,8.22c-0.053,0.146-0.146,0.273-0.279,0.38
				c-0.134,0.107-0.294,0.16-0.48,0.16h-1.561l11.58-28.3h2.021L283.934-51z M316.434-55.76c0.136,0,0.248,0.047,0.342,0.14
				l0.8,0.86c-0.586,0.627-1.224,1.189-1.91,1.689c-0.688,0.5-1.439,0.927-2.26,1.28c-0.821,0.353-1.722,0.627-2.7,0.819
				c-0.979,0.193-2.057,0.291-3.229,0.291c-1.961,0-3.757-0.344-5.391-1.03c-1.633-0.687-3.036-1.66-4.209-2.92
				c-1.174-1.261-2.084-2.783-2.729-4.57c-0.646-1.786-0.972-3.772-0.972-5.96c0-2.146,0.334-4.106,1-5.88
				c0.667-1.773,1.601-3.297,2.801-4.57c1.199-1.273,2.641-2.26,4.32-2.96c1.68-0.7,3.533-1.05,5.56-1.05
				c1.934,0,3.646,0.3,5.141,0.9c1.494,0.6,2.854,1.447,4.08,2.54l-0.62,0.9c-0.106,0.16-0.272,0.24-0.5,0.24
				c-0.159,0-0.42-0.146-0.78-0.44c-0.358-0.293-0.858-0.617-1.5-0.97c-0.64-0.353-1.436-0.676-2.39-0.97
				c-0.953-0.293-2.098-0.44-3.431-0.44c-1.707,0-3.271,0.293-4.689,0.88c-1.42,0.586-2.64,1.427-3.66,2.52
				c-1.02,1.093-1.816,2.427-2.391,4c-0.573,1.573-0.859,3.34-0.859,5.3c0,2,0.291,3.787,0.871,5.36
				c0.579,1.573,1.376,2.903,2.389,3.989c1.015,1.088,2.211,1.92,3.592,2.5c1.38,0.58,2.869,0.871,4.47,0.871
				c1.014,0,1.916-0.067,2.71-0.201c0.794-0.133,1.522-0.332,2.189-0.6c0.666-0.267,1.286-0.594,1.859-0.98
				c0.574-0.386,1.141-0.84,1.7-1.359c0.066-0.053,0.134-0.097,0.2-0.13C316.302-55.744,316.367-55.76,316.434-55.76z M352.895-79.3
				V-51h-2.061v-13.561h-17.72V-51h-2.061v-28.3h2.061v13.2h17.72v-13.2H352.895z M371.314-51h-2.062v-28.3h2.062V-51z
				 M409.514-79.3V-51h-0.959c-0.174,0-0.315-0.029-0.43-0.09s-0.225-0.164-0.33-0.311l-18.381-24.56
				c0.04,0.4,0.061,0.78,0.061,1.14V-51h-1.801v-28.3h1.021c0.187,0,0.33,0.023,0.431,0.07c0.1,0.047,0.209,0.15,0.329,0.31
				l18.341,24.5c-0.041-0.4-0.061-0.78-0.061-1.141V-79.3H409.514z M442.875-52.7l-0.041,1.7h-16.959v-28.3h16.959v1.7h-14.9v11.44
				h12.4v1.66h-12.4v11.8H442.875z"/>
		</g>
	</g>
</g>
<rect x="302.84" y="1" fill="#FFFFFF" stroke="#000000" stroke-width="2" width="70.16" height="71"/>
<g>
	<path d="M342.342,50.816h-2.522l-3.523-9.256h-14.171c-0.509,1.455-1.063,2.994-1.657,4.614c-0.595,1.621-1.165,3.168-1.709,4.642
		h-2.233c0.945-2.488,1.88-4.926,2.8-7.311c0.921-2.383,1.836-4.754,2.748-7.111c0.911-2.357,1.827-4.729,2.747-7.112
		c0.92-2.383,1.854-4.812,2.8-7.283h2.972L342.342,50.816z M335.69,39.904l-6.68-16.011l-6.336,16.011H335.69z"/>
	<path d="M354.835,50.816h-2.104V22.026h2.104V50.816z"/>
</g>
<g>
	<path d="M180.62,22.064l-7.515,28.873h-3.164l-7.91-26.104l-7.646,26.104h-3.164l-7.462-28.873H146l6.803,26.103l7.646-26.103
		h3.164l7.91,26.103l6.855-26.103H180.62z"/>
	<path d="M204.442,21.537c1.968,0,3.788,0.352,5.458,1.055c1.67,0.703,3.107,1.705,4.311,3.006c1.204,1.301,2.145,2.865,2.822,4.693
		c0.676,1.829,1.015,3.867,1.015,6.117c0,2.232-0.334,4.271-1.002,6.117c-0.669,1.846-1.604,3.433-2.808,4.76
		c-1.205,1.328-2.637,2.355-4.299,3.085c-1.66,0.729-3.493,1.095-5.497,1.095s-3.841-0.365-5.511-1.095s-3.107-1.753-4.311-3.071
		c-1.205-1.318-2.141-2.9-2.809-4.746s-1.002-3.894-1.002-6.145c0-2.267,0.338-4.314,1.016-6.143
		c0.676-1.828,1.621-3.388,2.834-4.68s2.65-2.29,4.311-2.993C200.633,21.889,202.455,21.537,204.442,21.537z M204.416,49.354
		c1.652,0,3.178-0.286,4.574-0.857c1.398-0.57,2.606-1.41,3.626-2.518c1.019-1.107,1.81-2.466,2.373-4.074
		c0.563-1.608,0.844-3.441,0.844-5.498c0-2.073-0.286-3.902-0.856-5.484c-0.572-1.582-1.363-2.914-2.373-3.995
		c-1.012-1.081-2.207-1.898-3.586-2.452c-1.381-0.554-2.888-0.831-4.522-0.831c-1.671,0-3.204,0.281-4.601,0.844
		c-1.398,0.563-2.607,1.384-3.626,2.465c-1.02,1.081-1.815,2.413-2.386,3.995c-0.572,1.582-0.857,3.401-0.857,5.458
		c0,2.057,0.281,3.89,0.844,5.498s1.349,2.967,2.359,4.074c1.012,1.107,2.215,1.947,3.613,2.518
		C201.238,49.068,202.764,49.354,204.416,49.354z"/>
	<path d="M251.289,50.937h-2.32l-2.874-7.674c-0.281-0.738-0.594-1.432-0.936-2.082c-0.344-0.65-0.743-1.217-1.2-1.701
		c-0.457-0.483-0.98-0.865-1.569-1.146s-1.278-0.422-2.069-0.422h-10.099v13.025h-2.109V22.064h12.999
		c1.213,0,2.386,0.11,3.521,0.33c1.133,0.22,2.144,0.611,3.031,1.173c0.888,0.563,1.596,1.341,2.123,2.333
		c0.527,0.993,0.791,2.264,0.791,3.81c0,0.967-0.119,1.868-0.355,2.703c-0.238,0.835-0.599,1.582-1.082,2.241
		s-1.099,1.222-1.846,1.688s-1.621,0.804-2.623,1.015c0.545,0.422,0.993,0.827,1.345,1.213c0.352,0.387,0.654,0.801,0.909,1.24
		s0.483,0.922,0.686,1.449s0.436,1.135,0.699,1.82L251.289,50.937z M230.222,35.802h10.02c1.424,0,2.646-0.105,3.665-0.316
		s1.858-0.559,2.519-1.042c0.658-0.483,1.146-1.111,1.463-1.885c0.316-0.773,0.475-1.723,0.475-2.848
		c0-1.986-0.629-3.405-1.885-4.258c-1.258-0.853-3.134-1.279-5.63-1.279h-10.626V35.802z"/>
	<path d="M285.029,50.937h-2.821l-11.522-15.768l-5.88,5.695v10.072h-2.109V22.064h2.109v15.873l16.374-15.873h2.927l-11.892,11.549
		L285.029,50.937z"/>
</g>
</svg>
